<?xml version="1.0" encoding="UTF-8" standalone="no"?>
<!-- Created with Inkscape (http://www.inkscape.org/) -->

<svg
   xmlns:dc="http://purl.org/dc/elements/1.1/"
   xmlns:cc="http://creativecommons.org/ns#"
   xmlns:rdf="http://www.w3.org/1999/02/22-rdf-syntax-ns#"
   xmlns:svg="http://www.w3.org/2000/svg"
   xmlns="http://www.w3.org/2000/svg"
   xmlns:sodipodi="http://sodipodi.sourceforge.net/DTD/sodipodi-0.dtd"
   xmlns:inkscape="http://www.inkscape.org/namespaces/inkscape"
   width="225"
   height="277"
   viewBox="0 0 59 73"
   version="1.1"
   id="svg8"
   inkscape:version="0.92.2 5c3e80d, 2017-08-06"
   sodipodi:docname="onepage.svg"
   inkscape:export-filename="/Users/nmn/Desktop/onepage.png"
   inkscape:export-xdpi="96"
   inkscape:export-ydpi="96">
  <defs
     id="defs2" />
  <sodipodi:namedview
     id="base"
     pagecolor="#ffffff"
     bordercolor="#666666"
     borderopacity="1.0"
     inkscape:pageopacity="0.0"
     inkscape:pageshadow="2"
     inkscape:zoom="1.4"
     inkscape:cx="10.586733"
     inkscape:cy="153.77332"
     inkscape:document-units="px"
     inkscape:current-layer="layer1"
     showgrid="false"
     inkscape:window-width="1650"
     inkscape:window-height="1078"
     inkscape:window-x="185"
     inkscape:window-y="59"
     inkscape:window-maximized="0"
     fit-margin-top="0"
     fit-margin-left="0"
     fit-margin-right="0"
     fit-margin-bottom="2.7755576e-17"
     units="px" />
  <metadata
     id="metadata5">
    <rdf:RDF>
      <cc:Work
         rdf:about="">
        <dc:format>image/svg+xml</dc:format>
        <dc:type
           rdf:resource="http://purl.org/dc/dcmitype/StillImage" />
        <dc:title />
      </cc:Work>
    </rdf:RDF>
  </metadata>
  <g
     inkscape:label="Layer 1"
     inkscape:groupmode="layer"
     id="layer1"
     transform="translate(-59.195008,-102.09193)">
    <g
       id="g35">
      <g
         transform="matrix(1.0063671,0,0,0.92384628,39.943676,44.789021)"
         id="g75">
        <path
           inkscape:connector-curvature="0"
           id="path77"
           d="m 43.088346,141.38907 c -0.140086,-0.10492 -0.310445,-7.55019 -0.350568,-15.32106 -0.01924,-3.72585 -9.22e-4,-4.37035 0.124165,-4.37035 0.117699,0 0.156868,0.32027 0.197965,1.61869 0.03427,1.08262 0.0944,1.66829 0.181579,1.76846 0.145201,0.16685 0.544069,0.16565 9.340072,-0.0281 3.52181,-0.0776 5.314063,-0.15891 5.404333,-0.24527 0.289761,-0.27721 0.751463,-2.60282 0.751463,-3.78515 0,-0.83841 -0.0933,-0.86533 -0.792191,-0.22851 -0.774215,0.70545 -1.067121,0.84079 -1.819711,0.84079 -0.767149,0 -1.231024,-0.21999 -1.783703,-0.84593 -0.453606,-0.51373 -0.56565,-0.84982 -0.781172,-2.34324 -0.130672,-0.90547 -0.16202,-1.55906 -0.116136,-2.42141 0.20024,-3.76338 1.673168,-6.33941 4.33121,-7.57493 1.392747,-0.64737 2.156548,-0.51809 3.336629,0.56475 l 0.274354,0.25175 0.495766,-0.58672 c 0.472204,-0.55884 1.198264,-0.98214 1.68461,-0.98214 0.167102,0 0.170553,0.0366 0.04181,0.44294 -0.07718,0.24362 -0.458957,1.24023 -0.848397,2.2147 -0.827927,2.07167 -0.891321,2.27908 -1.552415,5.07906 -0.541171,2.29207 -0.6655,3.01669 -0.830918,4.84282 -0.149314,1.64836 -0.291681,2.70208 -0.491476,3.63763 -0.199083,0.93221 -0.125797,1.07786 0.49121,0.97622 0.366445,-0.0604 7.691029,-0.36106 11.476299,-0.47114 1.15532,-0.0336 2.64152,-0.0966 3.30266,-0.14004 0.82392,-0.0541 1.39414,-0.032 1.81255,0.0704 0.33575,0.0821 0.72854,0.11517 0.87287,0.0734 l 0.26241,-0.0759 v -3.94881 c 0,-3.60893 -0.0151,-3.95859 -0.17592,-4.06231 -0.1087,-0.0701 -1.53181,-0.0881 -3.72437,-0.047 -2.76261,0.0518 -3.56582,0.0341 -3.62692,-0.0799 -0.20269,-0.37806 0.13816,-0.41788 3.75075,-0.43817 1.99182,-0.0112 3.63511,-0.068 3.68671,-0.12751 0.0527,-0.0607 0.0812,-1.51485 0.0658,-3.34772 l -0.0273,-3.24039 -1.43454,0.0351 c -1.90806,0.0466 -5.79858,0.24304 -6.51808,0.32902 -0.47083,0.0563 -0.58648,0.0342 -0.6384,-0.12175 -0.0425,-0.12779 0.0118,-0.22574 0.16513,-0.29765 0.20141,-0.0945 4.47559,-0.34012 7.28076,-0.41845 0.55368,-0.0155 1.04606,-0.0746 1.09418,-0.13153 0.0481,-0.0569 0.0545,-1.29935 0.0142,-2.76106 -0.0437,-1.58599 -0.0345,-2.79601 0.0229,-3.00077 0.11224,-0.40044 0.012,-4.66715 -0.11302,-4.81129 -0.0457,-0.0527 -3.83991,-0.1545 -8.43163,-0.22632 -9.846837,-0.15404 -12.210299,-0.23536 -12.263955,-0.422 -0.02104,-0.0732 0.03598,-0.16594 0.12673,-0.20608 0.164814,-0.0729 10.023855,0.086 16.801955,0.27072 2.65794,0.0725 3.61915,0.0627 3.71307,-0.0377 0.0936,-0.10003 0.13125,-0.94987 0.14405,-3.25102 0.0163,-2.93825 0.006,-3.12539 -0.17796,-3.28765 -0.16462,-0.14505 -0.61354,-0.16042 -2.85942,-0.0979 -1.46528,0.0408 -4.99271,0.0986 -7.83873,0.12849 -2.846019,0.0299 -6.149031,0.0869 -7.340024,0.12665 -1.612391,0.0538 -2.184542,0.0367 -2.240222,-0.0672 -0.04113,-0.0767 -0.0345,-0.18591 0.01474,-0.24266 0.04923,-0.0568 2.140922,-0.13059 4.648196,-0.16407 9.21152,-0.12301 12.89065,-0.18965 14.2609,-0.25828 l 1.40239,-0.0703 0.26989,0.31111 c 0.25614,0.29526 0.26834,0.36358 0.23948,1.34171 -0.0167,0.56683 0.007,11.84986 0.0537,25.07339 0.0702,20.0757 0.0613,24.06362 -0.0536,24.16911 -0.2958,0.27135 -0.90703,0.28191 -26.11309,0.45123 -4.98758,0.0335 -9.124695,0.0187 -9.193589,-0.0329 z m 31.902248,-0.7388 c 1.96886,0.0215 3.00599,-0.009 3.04908,-0.0892 0.12626,-0.23552 0.1385,-6.65357 0.013,-6.79849 -0.16238,-0.18744 -7.77977,-0.0596 -20.186248,0.33879 -5.410257,0.17373 -10.855519,0.3159 -12.100582,0.31594 -1.245064,3e-5 -2.320071,0.0402 -2.388906,0.0892 -0.178337,0.12706 -0.160536,5.87985 0.01897,6.13044 0.109964,0.15351 1.852612,0.16293 14.368051,0.0776 7.8336,-0.0534 15.585605,-0.0823 17.226675,-0.0644 z m -17.892711,-7.09145 c 6.227431,-0.19315 13.466721,-0.3824 16.087311,-0.42054 2.6206,-0.0381 4.80337,-0.11046 4.85061,-0.16072 0.10901,-0.11598 0.12723,-7.70716 0.019,-7.90907 -0.0585,-0.10903 -0.26594,-0.13085 -0.7587,-0.0798 -0.37303,0.0387 -4.43622,0.1275 -9.0293,0.19743 -4.593082,0.0699 -8.444835,0.17099 -8.559449,0.22458 -0.140229,0.0656 -0.336736,0.47123 -0.600793,1.24029 -0.215822,0.62858 -0.573675,1.45579 -0.79523,1.83825 -0.572499,0.98827 -1.76448,2.22766 -2.644065,2.74923 -1.076019,0.63805 -1.761065,0.58919 -2.518787,-0.17966 -0.538537,-0.54644 -0.818781,-1.11686 -0.915514,-1.86347 -0.06994,-0.5398 0.07845,-1.24435 0.23812,-1.1306 0.04788,0.0341 0.266129,0.415 0.485009,0.84643 0.720551,1.42028 1.314422,1.6905 2.203135,1.00247 1.146359,-0.8875 2.855013,-3.81475 2.554195,-4.37583 -0.0661,-0.12328 -1.118143,-0.13507 -5.497595,-0.0616 -2.978722,0.0499 -6.220819,0.12381 -7.204661,0.16414 l -1.788803,0.0733 -0.07209,0.29529 c -0.104426,0.42777 0.02172,7.71019 0.136465,7.87806 0.06946,0.10161 0.432879,0.12472 1.292589,0.0822 0.657782,-0.0325 6.291139,-0.21721 12.518569,-0.41037 z m 0.678056,-14.05917 c 0.477226,-0.5324 0.647712,-1.00785 1.435377,-4.00297 0.367344,-1.39685 0.872082,-3.09931 1.121639,-3.78325 0.507288,-1.39028 0.529711,-1.53695 0.274422,-1.79498 -0.602835,-0.60929 -1.434277,-0.74778 -2.013223,-0.33532 -0.684772,0.48785 -1.879093,2.07683 -2.318903,3.08518 -0.572928,1.31354 -1.021773,2.94265 -1.021773,3.70859 0,1.29967 0.416922,2.79986 0.934748,3.36347 0.37278,0.40573 1.108197,0.29424 1.587713,-0.24072 z m -28.65154,9.03263 c -0.08454,-0.0311 -0.453417,-0.16666 -0.819736,-0.30115 -1.40904,-0.51734 -2.223151,-1.22865 -3.667466,-3.20437 -1.501583,-2.05405 -2.496558,-4.15407 -3.340155,-7.0498 -0.79976,-2.74526 -0.832113,-2.99127 -0.823307,-6.26023 l 0.0078,-2.89388 0.483968,-1.74076 c 0.286332,-1.02989 0.626317,-1.9946 0.832551,-2.36235 1.34966,-2.40672 2.521169,-3.93836 3.858871,-5.04514 0.742274,-0.61413 0.964283,-0.86233 0.989332,-1.10604 l 0.0323,-0.31422 -1.569301,0.0119 c -1.65061,0.0125 -2.227939,-0.11665 -3.27546,-0.73268 -1.252252,-0.73643 -2.080265,-2.43172 -2.505119,-5.12903 -0.446607,-2.83541 -0.114432,-8.50276 0.720569,-12.29386 0.295709,-1.3426 0.496066,-1.94718 1.09283,-3.29765 0.401904,-0.90951 0.934033,-2.00821 1.182509,-2.44155 0.557668,-0.97259 1.638294,-2.23096 2.738769,-3.18927 0.774752,-0.67466 1.101659,-0.88108 2.641003,-1.6676 0.471243,-0.24078 0.653614,-0.42361 0.98695,-0.98944 0.820119,-1.39213 1.509273,-2.21276 2.738605,-3.26105 1.416954,-1.20828 2.567176,-1.89122 4.303613,-2.55526 2.190866,-0.83781 2.964273,-0.88432 4.130755,-0.2484 1.222704,0.66656 2.09184,1.87121 2.777174,3.84925 0.742124,2.14194 0.873299,4.24836 0.467298,7.50389 -0.239179,1.91786 -1.839019,6.78439 -3.641594,11.07732 -0.267882,0.63797 -0.380761,1.03151 -0.316966,1.10505 0.06379,0.0735 0.695504,-0.0332 1.77385,-0.29966 0.921124,-0.22763 1.972504,-0.44974 2.336402,-0.49357 0.933892,-0.11248 1.167148,-0.25624 2.207444,-1.36052 1.267222,-1.34515 1.995266,-1.95205 3.066572,-2.5563 0.843637,-0.47584 1.363117,-0.62654 1.523277,-0.44192 0.123899,0.14282 -0.226715,0.71643 -0.71521,1.17009 -0.969006,0.8999 -2.388869,2.44941 -2.388869,2.60699 0,0.18356 0.149993,0.23076 1.27,0.39963 1.08884,0.16418 1.73168,0.36639 3.187313,1.00263 2.03534,0.88963 3.743855,2.4426 4.405818,4.00473 0.551702,1.30192 0.86956,2.84355 0.941086,4.56431 0.05806,1.39687 0.04317,1.56347 -0.267881,2.99596 -0.881876,4.06137 -1.816043,6.17519 -3.651486,8.26253 -1.366714,1.55429 -2.65304,2.48768 -4.399079,3.19209 -1.25164,0.50495 -2.587792,0.71904 -4.508547,0.72237 -1.413548,0.002 -1.445032,-0.003 -2.151807,-0.38894 -0.394497,-0.21528 -1.17088,-0.7395 -1.725295,-1.16492 -0.677782,-0.52009 -1.041885,-0.73447 -1.111379,-0.65436 -0.106643,0.12294 -0.242779,0.90472 -0.600934,3.45095 -0.342898,2.43778 -0.584432,3.52213 -1.489258,6.68593 -0.858688,3.00248 -1.606468,5.03725 -2.331024,6.34292 -0.572232,1.03117 -1.826686,2.80577 -2.412759,3.41318 -0.835228,0.86564 -2.214212,1.36576 -2.984022,1.08223 z m 1.980934,-3.11937 c 1.091545,-1.29759 1.819576,-2.50272 2.611552,-4.32299 0.641741,-1.47498 0.897819,-2.34355 1.596857,-5.41626 0.672739,-2.9571 1.003462,-4.74069 1.292222,-6.96893 0.20961,-1.61748 0.250128,-1.94585 0.568407,-4.60659 0.432877,-3.61874 1.455311,-8.35736 2.385487,-11.05589 0.475479,-1.37941 1.482374,-3.60248 2.213305,-4.88664 0.873764,-1.5351 0.843088,-1.58268 -0.764726,-1.1863 -1.447036,0.35675 -2.593924,0.7229 -2.97398,0.94945 -0.167393,0.0998 -0.655408,0.78723 -1.170731,1.64915 -2.089419,3.49475 -3.319599,4.79913 -6.770368,7.17873 -0.709694,0.48939 -0.571857,0.60919 0.782842,0.6804 1.067474,0.0561 1.221937,0.094 1.733762,0.42567 0.948123,0.61433 1.519815,1.89138 1.613464,3.60417 0.09998,1.82861 -0.276315,3.19922 -1.220801,4.4466 -0.691404,0.91314 -1.109753,1.24888 -1.876184,1.50572 -1.197165,0.40118 -1.954617,0.002 -2.798444,-1.47514 -0.629617,-1.10209 -0.87746,-1.76197 -1.105454,-2.94324 -0.08307,-0.43041 -0.174173,-0.90215 -0.202447,-1.04832 -0.02995,-0.15482 -0.128143,-0.26577 -0.235219,-0.26577 -0.690398,0 -2.642315,4.42249 -3.040657,6.88927 -0.328889,2.03666 -0.353285,5.59673 -0.0515,7.51517 0.324476,2.06268 1.530758,5.56024 2.487046,7.21108 0.473386,0.8172 2.331356,2.9508 2.790932,3.20497 0.732467,0.40508 0.993109,0.27269 2.134635,-1.08431 z m 15.131051,-17.28856 c 1.485366,-0.39063 1.818513,-0.53969 2.830493,-1.26638 1.448178,-1.03993 2.205459,-2.26003 3.21408,-5.17841 0.758266,-2.19398 0.92871,-3.06013 1.023286,-5.2 0.129861,-2.93823 -0.107748,-4.95206 -0.775787,-6.57509 -0.281996,-0.68512 -0.519263,-1.03008 -1.245266,-1.81046 -1.419389,-1.52571 -2.295376,-1.92657 -4.241434,-1.94093 -1.418228,-0.0105 -1.318733,-0.0806 -2.340061,1.64902 -1.162356,1.96843 -2.095769,4.30751 -3.295426,8.25814 -0.673839,2.21904 -2.167941,8.95841 -2.117916,9.55317 0.02715,0.32278 0.152029,0.46986 0.902479,1.06294 0.886541,0.70063 1.81041,1.28828 2.458112,1.56355 0.616928,0.2622 2.365185,0.20588 3.58744,-0.11555 z m -14.965949,-2.07387 c 0.57037,-0.33543 1.417411,-1.33111 1.651623,-1.94145 0.110775,-0.28868 0.252453,-0.94094 0.31484,-1.44948 0.09533,-0.77702 0.08649,-1.04584 -0.05536,-1.6841 -0.268354,-1.20748 -0.537673,-1.67004 -1.19224,-2.04768 -0.470134,-0.27123 -0.709336,-0.32966 -1.391314,-0.33984 -0.476349,-0.007 -0.922807,0.0489 -1.058945,0.13292 -0.234479,0.14466 -0.235172,0.15269 -0.182579,2.1116 0.0469,1.7468 0.08876,2.10988 0.37481,3.25113 0.337463,1.34636 0.445554,1.65279 0.703013,1.99303 0.200425,0.26487 0.349228,0.26022 0.836151,-0.0261 z m -4.576476,-9.27125 c 0.296735,-0.16232 0.415448,-0.35746 0.742739,-1.2209 0.660099,-1.74145 1.262945,-2.80465 2.251269,-3.97044 0.514269,-0.60662 1.307475,-1.38099 1.793172,-1.7506 1.201993,-0.91469 3.231453,-2.08074 4.457314,-2.56099 0.844882,-0.33099 1.096584,-0.48822 1.434537,-0.89608 0.537206,-0.64835 1.229016,-2.08361 2.084522,-4.32466 0.381529,-0.99944 0.846492,-2.21581 1.033251,-2.70305 1.15469,-3.01246 1.602134,-4.90133 1.753968,-7.40435 0.151648,-2.49995 0.0076,-3.79502 -0.569355,-5.1177 -0.89297,-2.04727 -2.739376,-3.00175 -4.576068,-2.36555 -0.978165,0.33882 -2.803409,1.35751 -3.773876,2.10625 -0.843312,0.65064 -2.090851,2.06589 -2.024211,2.29634 0.02314,0.08 0.338227,0.26244 0.700184,0.40534 1.121858,0.44291 1.708714,1.5608 1.440283,2.74356 -0.40615,1.78959 -1.71397,3.5271 -3.386694,4.49943 -0.309435,0.17987 -0.698584,0.27892 -1.229604,0.31295 -0.660333,0.0423 -0.845148,0.009 -1.23181,-0.21924 -0.737696,-0.43625 -0.87145,-0.74531 -0.912374,-2.10816 -0.02569,-0.85543 -0.07085,-1.17286 -0.16687,-1.17286 -0.345715,0 -1.745786,2.36816 -2.438876,4.12526 -0.429904,1.08988 -1.332307,3.91139 -1.650429,5.16034 -0.662399,2.60057 -1.18994,6.31463 -1.190324,8.38026 -3.07e-4,1.6701 0.190618,2.66844 0.804794,4.20815 0.44227,1.10875 0.736937,1.43583 1.534028,1.70274 0.654733,0.21924 2.63547,0.13924 3.12043,-0.12604 z m 4.431654,-2.13606 c 1.64938,-1.19367 3.194471,-2.89208 4.171983,-4.58596 0.284882,-0.49366 0.366463,-0.90094 0.180462,-0.90094 -0.05597,0 -0.525466,0.19549 -1.04333,0.43442 -1.917369,0.88463 -3.430337,2.41291 -4.179149,4.22146 -0.704638,1.70186 -0.544545,1.85477 0.870034,0.83102 z M 31.30524,74.11415 c 0.384888,-0.43877 0.716677,-0.96347 0.909321,-1.43802 0.272711,-0.67177 0.29211,-0.79515 0.192254,-1.22263 -0.130329,-0.55793 -0.480643,-0.88671 -1.152602,-1.08175 -0.329145,-0.0955 -0.527941,-0.0994 -0.66803,-0.013 -0.247307,0.15257 -0.752953,1.51918 -1.057741,2.85877 -0.204338,0.8981 -0.213851,1.04734 -0.0863,1.354 0.07885,0.18956 0.256175,0.40948 0.394067,0.4887 0.329668,0.18942 0.65902,-0.0227 1.469028,-0.94609 z m 12.951992,47.64682 c -0.477651,-0.17561 -0.929938,-0.64967 -1.233764,-1.29316 -1.206823,-2.556 0.243234,-7.93226 2.616324,-9.70033 0.620941,-0.46263 1.547647,-0.86605 2.292673,-0.99806 0.535041,-0.0948 1.80759,0.20971 2.190774,0.52424 0.505188,0.41467 0.661059,0.32965 0.979596,-0.53431 0.334898,-0.90834 0.48799,-1.11368 0.830321,-1.11368 0.175976,0 0.281553,0.0915 0.351954,0.30492 0.11256,0.34127 0.06028,0.53162 -1.054695,3.84029 -0.914926,2.71502 -1.201851,4.19452 -1.200468,6.19008 9.22e-4,1.3084 0.121854,1.64044 0.614873,1.68804 0.341142,0.0329 0.738582,-0.18516 1.765199,-0.96864 0.449738,-0.34322 0.362468,0.0308 -0.209539,0.89804 -0.578325,0.87682 -1.163545,1.27644 -1.869268,1.27644 -0.35974,0 -0.522963,-0.0635 -0.682752,-0.26577 -0.406765,-0.5148 -0.484518,-0.83432 -0.510192,-2.09658 -0.01387,-0.68213 -0.02693,-1.30668 -0.02902,-1.38789 -0.009,-0.3509 -0.332883,-0.0965 -0.676728,0.53153 -0.473957,0.86571 -1.348717,1.90747 -2.183511,2.60036 -0.542133,0.44998 -0.74281,0.54814 -1.17837,0.57643 -0.28873,0.0187 -0.654763,-0.0136 -0.813409,-0.072 z m 1.241355,-1.23564 c 0.304334,-0.18515 1.312951,-1.36103 1.881923,-2.19402 0.390481,-0.57167 1.659382,-2.92652 2.022157,-3.75275 0.339879,-0.77408 0.932396,-2.51304 0.932396,-2.73646 0,-0.21574 -0.42707,-0.72438 -0.787383,-0.93776 -0.386848,-0.22911 -1.13019,-0.15545 -1.729488,0.17136 -1.111984,0.6064 -2.681646,3.29242 -3.323153,5.68661 -0.351244,1.31089 -0.247528,3.0816 0.213644,3.64747 0.267317,0.32801 0.407069,0.34845 0.789904,0.11555 z m 19.537194,1.19158 c -0.616037,-0.23306 -1.352541,-0.76513 -1.589024,-1.14797 -0.485618,-0.78615 -0.644976,-1.60512 -0.642261,-3.30069 0.0024,-1.49811 0.02585,-1.68391 0.38757,-3.07106 0.43648,-1.67382 0.68907,-2.30454 1.397829,-3.49041 0.856123,-1.43243 1.577249,-2.06111 2.364209,-2.06111 0.59174,0 1.01199,0.21946 1.55168,0.81031 0.57758,0.63234 0.6832,0.94085 0.6832,1.99552 0,0.81544 -0.035,0.99122 -0.28957,1.45281 -0.6733,1.22101 -2.53156,2.65679 -3.641908,2.8139 -0.711576,0.10069 -0.800144,0.31691 -0.758919,1.85269 0.0382,1.42319 0.298162,2.14744 0.964579,2.68735 1.027428,0.8324 1.726118,0.51096 3.454138,-1.58912 0.65416,-0.795 1.21089,-1.42064 1.2372,-1.39032 0.0263,0.0303 0.008,0.25736 -0.0401,0.50453 -0.1243,0.63533 -0.73495,1.64891 -1.58221,2.62623 -0.55982,0.64576 -0.86757,0.89914 -1.34131,1.10436 -0.75964,0.32907 -1.61007,0.40917 -2.155103,0.20298 z m 1.190273,-7.52571 c 0.9696,-0.67533 1.56735,-1.311 1.82353,-1.93925 0.2689,-0.65943 0.27131,-0.89484 0.0151,-1.4737 -0.26515,-0.59914 -0.66676,-0.9514 -1.08465,-0.9514 -0.28122,0 -0.41092,0.10248 -0.78484,0.62011 -0.4422,0.61216 -1.061047,1.745 -1.282111,2.34696 -0.166849,0.45434 -0.265564,1.3542 -0.187758,1.71155 0.06135,0.28177 0.102471,0.30482 0.43333,0.24293 0.201052,-0.0376 0.681369,-0.28835 1.067379,-0.5572 z m -10.40583,-10.50054 c -0.135928,-0.25353 0.409005,-0.33134 2.404796,-0.34337 1.155315,-0.007 2.86139,-0.0416 3.791278,-0.0769 4.823866,-0.1832 15.139116,-0.42227 15.437306,-0.35778 0.41533,0.0898 0.44495,0.25766 0.0608,0.34471 -0.15498,0.0351 -1.78036,0.0943 -3.61196,0.13156 -1.83159,0.0372 -6.00456,0.14528 -9.273258,0.2401 -6.972307,0.20226 -8.727013,0.21454 -8.808982,0.0617 z M 52.230702,81.13857 c -0.489477,-0.24966 -0.870969,-1.10866 -0.870969,-1.96115 0,-0.57563 0.385164,-2.58534 0.736116,-3.8409 0.118032,-0.42227 0.519152,-1.59164 0.891377,-2.59859 0.567104,-1.53414 0.675962,-1.93609 0.671766,-2.48047 -0.0059,-0.76382 -0.279899,-1.50252 -0.624478,-1.6835 -0.586081,-0.30782 -1.860584,0.53666 -2.662634,1.76425 -1.338871,2.04923 -2.880864,6.66006 -3.258296,9.74288 -0.03713,0.30327 -0.130148,0.61133 -0.206709,0.68457 -0.08365,0.08 -0.43898,0.11924 -0.890478,0.0983 -0.857839,-0.0399 -0.94256,-0.15481 -0.667622,-0.9057 0.157839,-0.43107 1.527095,-5.99092 1.909082,-7.75181 0.126185,-0.58169 0.205589,-1.34431 0.206558,-1.98384 0.0014,-0.94679 -0.02072,-1.0646 -0.249938,-1.32882 -0.167059,-0.19257 -0.366916,-0.28992 -0.595212,-0.28992 -0.409745,0 -1.337715,0.61365 -2.01297,1.33115 -0.366527,0.38945 -0.475227,0.45448 -0.501081,0.29973 -0.08535,-0.51086 0.96287,-1.95562 1.754252,-2.4179 0.39047,-0.22808 0.614351,-0.28628 0.919709,-0.23907 0.755919,0.11688 1.636743,1.21339 1.801182,2.24225 0.0498,0.31158 0.12442,0.60392 0.165825,0.64964 0.0414,0.0457 0.218084,-0.12948 0.392623,-0.38933 0.579177,-0.8623 1.860252,-2.23963 2.387184,-2.56655 0.742742,-0.46081 1.785543,-0.72107 2.277423,-0.56839 0.803091,0.24928 1.169942,1.04956 1.22048,2.66247 l 0.03701,1.18117 -0.782462,2.77576 c -1.137834,4.03644 -1.284863,4.60512 -1.350385,5.223 -0.07843,0.7396 0.141641,1.15539 0.611462,1.15526 0.344163,-1e-4 1.412528,-0.52921 1.935776,-0.95871 0.38503,-0.31604 0.475049,-0.21088 0.261459,0.30544 -0.259455,0.62718 -0.849661,1.31249 -1.375951,1.59766 -0.519293,0.28138 -1.77953,0.42998 -2.1301,0.25117 z m 7.223922,-0.0848 c -0.589342,-0.30447 -1.016598,-0.86511 -1.19332,-1.56587 -0.210346,-0.83408 -0.209925,-2.85701 8.19e-4,-4.11802 0.612607,-3.665 1.626766,-5.70065 3.444408,-6.9137 0.564374,-0.37665 0.755056,-0.44294 1.274102,-0.44294 1.236654,0 2.015225,0.8115 2.090774,2.1792 0.04868,0.88122 -0.06569,1.18233 -0.801559,2.11047 -0.626159,0.78976 -1.554105,1.48576 -2.692264,2.0193 -1.363871,0.63935 -1.395841,0.66297 -1.518609,1.1217 -0.06243,0.23328 -0.136117,1.06198 -0.163746,1.84156 -0.05733,1.61753 0.108051,2.38514 0.606026,2.81293 0.244861,0.21035 0.325527,0.2226 0.673755,0.10233 0.217574,-0.0751 1.060713,-0.64076 1.873642,-1.25692 1.653384,-1.2532 2.24039,-1.64576 2.32136,-1.55243 0.03022,0.0348 -0.124106,0.33671 -0.342948,0.67083 -0.553881,0.84564 -2.395779,2.52785 -3.105909,2.83664 -0.754729,0.32818 -1.981985,0.40526 -2.466566,0.15492 z m 2.897322,-8.11922 c 0.681517,-0.35055 1.749697,-1.55551 1.926559,-2.17326 0.221462,-0.77353 -0.373956,-1.80311 -1.042754,-1.80311 -0.599788,0 -1.746439,1.66856 -2.339584,3.40447 -0.230338,0.67411 -0.211555,0.81184 0.130618,0.95775 0.254114,0.10836 0.508094,0.0344 1.325161,-0.38585 z"
           style="fill:#0a0a0a;stroke-width:0.11001431" />
      </g>
      <path
         inkscape:connector-curvature="0"
         id="path4622"
         d="m 63.564679,134.15882 c -0.546391,-0.19618 -0.776525,-0.46685 -1.322916,-1.55593 -0.615419,-1.22667 -0.666047,-1.46344 -0.727388,-3.40179 -0.148354,-4.68803 1.810581,-11.85356 4.241991,-15.51664 0.792191,-1.19349 0.981861,-1.11378 1.007827,0.42356 0.02663,1.5766 1.741215,2.24301 3.535786,1.37427 1.638567,-0.79321 3.471997,-3.3261 3.469351,-4.79292 -0.0013,-0.67977 -0.681844,-1.54334 -1.536681,-1.94974 l -0.824963,-0.39219 0.966623,-0.93791 c 1.659234,-1.60993 4.516885,-3.06484 6.019795,-3.06484 1.631077,0 2.729574,0.79197 3.538815,2.55134 0.388726,0.84512 0.431782,1.20446 0.407609,3.40179 -0.03753,3.41151 -0.808331,6.04377 -3.399104,11.60777 -1.19919,2.57541 -1.460691,2.8567 -3.407291,3.66515 -3.743278,1.55463 -6.080742,3.57124 -7.625697,6.57895 -0.522226,1.01666 -1.029382,1.89785 -1.127019,1.95819 -0.394525,0.24383 -2.582992,0.27849 -3.216738,0.0509 z"
         style="fill:#bff5f9;fill-opacity:1;stroke-width:0.1889881" />
      <path
         inkscape:connector-curvature="0"
         id="path4624"
         d="m 69.839085,113.94528 c -0.319011,-0.31901 -0.283477,-0.87277 0.145021,-2.26008 0.495821,-1.60528 0.760336,-1.94871 1.380958,-1.79295 0.684477,0.1718 1.082056,0.62634 1.082056,1.23711 0,0.62835 -0.965359,2.14099 -1.700395,2.66438 -0.624819,0.44491 -0.615783,0.4434 -0.90764,0.15154 z"
         style="fill:#6ed0d6;fill-opacity:1;stroke-width:0.1889881" />
      <path
         inkscape:connector-curvature="0"
         id="path4626"
         d="m 70.19559,132.17319 c 0.67116,-1.78002 2.325288,-3.52044 4.179168,-4.39718 0.643353,-0.30426 1.209855,-0.51307 1.258892,-0.46404 0.170421,0.17043 -1.321871,2.13466 -2.411065,3.17357 -1.021319,0.97418 -2.739591,2.20736 -3.075644,2.20736 -0.08102,0 -0.05913,-0.23387 0.04865,-0.51971 z"
         style="fill:#99bee7;fill-opacity:1;stroke-width:0.1889881" />
      <path
         inkscape:connector-curvature="0"
         id="path4628"
         d="m 82.148409,144.33324 c -0.433149,-0.24769 -1.187797,-0.72572 -1.67699,-1.0623 l -0.889444,-0.61195 0.108386,-0.91516 c 0.310293,-2.61994 2.436098,-9.85839 3.795895,-12.92518 0.790464,-1.78276 2.225982,-4.04894 2.652255,-4.18699 0.648957,-0.21017 2.722578,-0.082 3.425555,0.21171 1.143685,0.47786 2.855314,2.28009 3.305199,3.48015 0.546975,1.45906 0.760878,3.82755 0.556133,6.15793 -0.177739,2.02305 -0.579493,3.44664 -1.610135,5.70545 -1.383351,3.03181 -3.923816,4.59681 -7.461893,4.59672 -1.146974,-3e-5 -1.567672,-0.086 -2.204961,-0.45038 z"
         style="fill:#c9ddf2;fill-opacity:1;stroke-width:0.1889881" />
      <path
         inkscape:connector-curvature="0"
         id="path4632"
         d="m 69.75694,113.65235 c -0.09662,-0.44346 0.351493,-2.38589 0.710649,-3.08042 0.419153,-0.81055 1.473708,-0.72948 1.803779,0.13868 0.228846,0.60191 -0.146415,1.48852 -1.056299,2.49565 -0.738727,0.81768 -1.337268,1.0008 -1.458129,0.44609 z"
         style="fill:#bff5f9;fill-opacity:1;stroke-width:0.1889881" />
      <path
         inkscape:connector-curvature="0"
         id="path4634"
         d="m 70.181035,132.36217 c 0.0054,-0.43063 1.22586,-2.16228 2.117651,-3.0046 0.972164,-0.91823 2.909906,-2.09268 3.114757,-1.88783 0.05166,0.0517 -0.162179,0.46134 -0.475192,0.9104 -1.231109,1.76623 -4.766519,4.72554 -4.757216,3.98203 z"
         style="fill:#bff5f9;fill-opacity:1;stroke-width:0.1889881" />
      <path
         inkscape:connector-curvature="0"
         id="path4636"
         d="m 83.534278,167.44807 c -0.06741,-0.56143 -0.123304,-2.2202 -0.124206,-3.68614 l -0.0016,-2.66535 1.445925,-0.12222 c 0.79526,-0.0672 4.069479,-0.12223 7.276041,-0.12223 4.539049,0 5.829726,0.0523 5.828345,0.23623 -0.0034,0.45746 -1.172742,2.27115 -1.993164,3.09157 -1.218015,1.21801 -1.85869,1.07673 -2.831674,-0.62444 -0.432819,-0.75675 -0.654043,-0.63615 -0.654043,0.35654 0,1.3229 1.117344,2.60974 2.266001,2.60974 0.585189,0 1.67958,-0.61343 2.701231,-1.51411 0.663234,-0.5847 1.13098,-1.26356 1.756302,-2.54898 l 0.852314,-1.75203 6.55917,-0.115 c 3.60755,-0.0632 7.71983,-0.15888 9.13841,-0.21252 l 2.57922,-0.0975 0.13294,1.32375 c 0.0731,0.72806 0.0723,2.37521 -0.002,3.66033 l -0.13477,2.33659 -6.45165,0.13153 c -3.54835,0.0724 -9.04545,0.20826 -12.215732,0.30204 -3.170275,0.0938 -8.068233,0.22957 -10.88435,0.30177 l -5.120214,0.13126 z"
         style="fill:#e6e6e6;fill-opacity:1;stroke-width:0.1889881" />
      <path
         inkscape:connector-curvature="0"
         id="path4638"
         d="m 84.873088,174.68687 -1.27567,-0.0559 v -2.70537 -2.70537 l 0.992188,-0.11917 c 0.545703,-0.0656 2.267857,-0.12162 3.827007,-0.12462 1.559153,-0.003 7.1721,-0.12938 12.473217,-0.28086 5.30111,-0.15149 11.39786,-0.27735 13.54832,-0.27969 l 3.90992,-0.004 0.13132,0.87571 c 0.12994,0.8665 0.0169,5.10989 -0.14037,5.26712 -0.0932,0.0931 -31.523266,0.21749 -33.465932,0.13239 z"
         style="fill:#e6e6e6;fill-opacity:1;stroke-width:0.1889881" />
    </g>
  </g>
</svg>
